{"asset": {"version": "2.0", "generator": "player size reference for GoldenEye 007 (Wii) maps"}, "scene": 0, "scenes": [{"name": "reference", "nodes": [6]}], "nodes": [{"name": "reference_player_0.5_m_wide_1.7_m_tall", "mesh": 0}, {"name": "reference_eye_standing_1.5_m", "mesh": 1}, {"name": "reference_eye_crouched_0.9_m", "mesh": 2}, {"name": "reference_cube_1_m", "mesh": 3}, {"name": "reference_ruler_0.5_m_steps", "mesh": 4}, {"name": "reference_ruler_0.5_m_steps_b", "mesh": 5}, {"name": "reference_player_size", "children": [0, 1, 2, 3, 4, 5]}], "meshes": [{"name": "player 0.5 m wide 1.7 m tall", "primitives": [{"attributes": {"POSITION": 0, "NORMAL": 1}, "indices": 2, "material": 0}]}, {"name": "eye standing 1.5 m", "primitives": [{"attributes": {"POSITION": 0, "NORMAL": 1}, "indices": 3, "material": 1}]}, {"name": "eye crouched 0.9 m", "primitives": [{"attributes": {"POSITION": 0, "NORMAL": 1}, "indices": 4, "material": 2}]}, {"name": "cube 1 m", "primitives": [{"attributes": {"POSITION": 0, "NORMAL": 1}, "indices": 5, "material": 3}]}, {"name": "ruler 0.5 m steps", "primitives": [{"attributes": {"POSITION": 0, "NORMAL": 1}, "indices": 6, "material": 3}]}, {"name": "ruler 0.5 m steps b", "primitives": [{"attributes": {"POSITION": 0, "NORMAL": 1}, "indices": 7, "material": 4}]}], "materials": [{"name": "reference_body", "pbrMetallicRoughness": {"baseColorFactor": [0.85, 0.55, 0.2, 1], "metallicFactor": 0, "roughnessFactor": 0.9}}, {"name": "reference_eye", "pbrMetallicRoughness": {"baseColorFactor": [0.2, 0.6, 1, 1], "metallicFactor": 0, "roughnessFactor": 0.9}}, {"name": "reference_crouch", "pbrMetallicRoughness": {"baseColorFactor": [0.3, 0.85, 0.4, 1], "metallicFactor": 0, "roughnessFactor": 0.9}}, {"name": "reference_light", "pbrMetallicRoughness": {"baseColorFactor": [0.9, 0.9, 0.9, 1], "metallicFactor": 0, "roughnessFactor": 0.9}}, {"name": "reference_dark", "pbrMetallicRoughness": {"baseColorFactor": [0.25, 0.25, 0.25, 1], "metallicFactor": 0, "roughnessFactor": 0.9}}], "buffers": [{"byteLength": 14376, "uri": "data:application/octet-stream;base64,"}], "bufferViews": [{"buffer": 0, "byteOffset": 0, "byteLength": 5376, "target": 34962}, {"buffer": 0, "byteOffset": 5376, "byteLength": 5376, "target": 34962}, {"buffer": 0, "byteOffset": 10752, "byteLength": 3120, "target": 34963}, {"buffer": 0, "byteOffset": 13872, "byteLength": 72, "target": 34963}, {"buffer": 0, "byteOffset": 13944, "byteLength": 72, "target": 34963}, {"buffer": 0, "byteOffset": 14016, "byteLength": 72, "target": 34963}, {"buffer": 0, "byteOffset": 14088, "byteLength": 144, "target": 34963}, {"buffer": 0, "byteOffset": 14232, "byteLength": 144, "target": 34963}], "accessors": [{"bufferView": 0, "componentType": 5126, "count": 448, "type": "VEC3", "min": [-0.85, 0.0, -0.5], "max": [1.75, 2.0, 0.5]}, {"bufferView": 1, "componentType": 5126, "count": 448, "type": "VEC3"}, {"bufferView": 2, "componentType": 5123, "count": 1560, "type": "SCALAR"}, {"bufferView": 3, "componentType": 5123, "count": 36, "type": "SCALAR"}, {"bufferView": 4, "componentType": 5123, "count": 36, "type": "SCALAR"}, {"bufferView": 5, "componentType": 5123, "count": 36, "type": "SCALAR"}, {"bufferView": 6, "componentType": 5123, "count": 72, "type": "SCALAR"}, {"bufferView": 7, "componentType": 5123, "count": 72, "type": "SCALAR"}], "extras": {"units": "metres, 1 unit of the game", "player_width": 0.5, "player_height": 1.7, "eye_standing": 1.5, "eye_crouched": 0.9}}