{
 "asset": {
  "version": "2.0",
  "generator": "eurochef docs"
 },
 "scene": 0,
 "scenes": [
  {
   "name": "example",
   "nodes": [
    6,
    8,
    9,
    10,
    11,
    12,
    13,
    14,
    15,
    16,
    17,
    18,
    19,
    20,
    21
   ]
  }
 ],
 "nodes": [
  {
   "name": "yard_floor",
   "mesh": 0
  },
  {
   "name": "yard_walls",
   "mesh": 1
  },
  {
   "name": "blocks",
   "mesh": 2
  },
  {
   "name": "crate",
   "mesh": 3
  },
  {
   "name": "steps",
   "mesh": 4
  },
  {
   "name": "rungs",
   "mesh": 5
  },
  {
   "name": "Room01",
   "children": [
    0,
    1,
    2,
    3,
    4,
    5
   ]
  },
  {
   "name": "hall",
   "mesh": 6
  },
  {
   "name": "Room02",
   "children": [
    7
   ]
  },
  {
   "name": "Portal_01_02",
   "mesh": 7
  },
  {
   "name": "sky",
   "mesh": 8
  },
  {
   "name": "collision_add_ramp",
   "mesh": 9
  },
  {
   "name": "vault_wall",
   "mesh": 10
  },
  {
   "name": "vault_long_fence",
   "mesh": 11
  },
  {
   "name": "climb_crate",
   "mesh": 12
  },
  {
   "name": "ladder_platform",
   "mesh": 13
  },
  {
   "name": "spawn",
   "translation": [
    0.0,
    0.0,
    0.0
   ]
  },
  {
   "name": "mp_spawn_team0",
   "translation": [
    -8.0,
    0.2,
    8.0
   ],
   "rotation": [
    0.0,
    0.9238795325112867,
    0.0,
    0.38268343236508984
   ]
  },
  {
   "name": "mp_spawn_team0.001",
   "translation": [
    8.0,
    0.2,
    -8.0
   ],
   "rotation": [
    0.0,
    -0.3826834323650898,
    0.0,
    0.9238795325112867
   ]
  },
  {
   "name": "mp_spawn_team1",
   "translation": [
    18.0,
    0.2,
    2.0
   ],
   "rotation": [
    0.0,
    -0.7071067811865475,
    0.0,
    0.7071067811865476
   ]
  },
  {
   "name": "mp_spawn_team1.001",
   "translation": [
    18.0,
    0.2,
    -2.0
   ],
   "rotation": [
    0.0,
    -0.7071067811865475,
    0.0,
    0.7071067811865476
   ]
  },
  {
   "name": "reference_player",
   "mesh": 14,
   "translation": [
    1.5,
    0.0,
    0.0
   ]
  }
 ],
 "meshes": [
  {
   "name": "yard_floor_mesh",
   "primitives": [
    {
     "attributes": {
      "POSITION": 0,
      "NORMAL": 1,
      "TEXCOORD_0": 2
     },
     "indices": 3,
     "material": 0
    }
   ]
  },
  {
   "name": "yard_walls_mesh",
   "primitives": [
    {
     "attributes": {
      "POSITION": 4,
      "NORMAL": 5,
      "TEXCOORD_0": 6
     },
     "indices": 7,
     "material": 1
    }
   ]
  },
  {
   "name": "blocks_mesh",
   "primitives": [
    {
     "attributes": {
      "POSITION": 8,
      "NORMAL": 9,
      "TEXCOORD_0": 10
     },
     "indices": 11,
     "material": 1
    }
   ]
  },
  {
   "name": "crate_mesh",
   "primitives": [
    {
     "attributes": {
      "POSITION": 12,
      "NORMAL": 13,
      "TEXCOORD_0": 14
     },
     "indices": 15,
     "material": 2
    }
   ]
  },
  {
   "name": "steps_mesh",
   "primitives": [
    {
     "attributes": {
      "POSITION": 16,
      "NORMAL": 17,
      "TEXCOORD_0": 18
     },
     "indices": 19,
     "material": 3
    }
   ]
  },
  {
   "name": "rungs_mesh",
   "primitives": [
    {
     "attributes": {
      "POSITION": 20,
      "NORMAL": 21,
      "TEXCOORD_0": 22
     },
     "indices": 23,
     "material": 2
    }
   ]
  },
  {
   "name": "hall_mesh",
   "primitives": [
    {
     "attributes": {
      "POSITION": 24,
      "NORMAL": 25,
      "TEXCOORD_0": 26
     },
     "indices": 27,
     "material": 0
    }
   ]
  },
  {
   "name": "Portal_01_02_mesh",
   "primitives": [
    {
     "attributes": {
      "POSITION": 28,
      "NORMAL": 29,
      "TEXCOORD_0": 30
     },
     "indices": 31,
     "material": 5
    }
   ]
  },
  {
   "name": "sky_mesh",
   "primitives": [
    {
     "attributes": {
      "POSITION": 32,
      "NORMAL": 33,
      "TEXCOORD_0": 34,
      "COLOR_0": 35
     },
     "indices": 36,
     "material": 4
    }
   ]
  },
  {
   "name": "collision_add_ramp_mesh",
   "primitives": [
    {
     "attributes": {
      "POSITION": 37,
      "NORMAL": 38,
      "TEXCOORD_0": 39
     },
     "indices": 40,
     "material": 5
    }
   ]
  },
  {
   "name": "vault_wall_mesh",
   "primitives": [
    {
     "attributes": {
      "POSITION": 41,
      "NORMAL": 42,
      "TEXCOORD_0": 43
     },
     "indices": 44,
     "material": 5
    }
   ]
  },
  {
   "name": "vault_long_fence_mesh",
   "primitives": [
    {
     "attributes": {
      "POSITION": 45,
      "NORMAL": 46,
      "TEXCOORD_0": 47
     },
     "indices": 48,
     "material": 5
    }
   ]
  },
  {
   "name": "climb_crate_mesh",
   "primitives": [
    {
     "attributes": {
      "POSITION": 49,
      "NORMAL": 50,
      "TEXCOORD_0": 51
     },
     "indices": 52,
     "material": 5
    }
   ]
  },
  {
   "name": "ladder_platform_mesh",
   "primitives": [
    {
     "attributes": {
      "POSITION": 53,
      "NORMAL": 54,
      "TEXCOORD_0": 55
     },
     "indices": 56,
     "material": 5
    }
   ]
  },
  {
   "name": "reference_player_mesh",
   "primitives": [
    {
     "attributes": {
      "POSITION": 57,
      "NORMAL": 58,
      "TEXCOORD_0": 59
     },
     "indices": 60,
     "material": 5
    }
   ]
  }
 ],
 "materials": [
  {
   "name": "tiles",
   "pbrMetallicRoughness": {
    "baseColorTexture": {
     "index": 0
    }
   }
  },
  {
   "name": "bricks",
   "pbrMetallicRoughness": {
    "baseColorTexture": {
     "index": 1
    }
   }
  },
  {
   "name": "wood",
   "pbrMetallicRoughness": {
    "baseColorTexture": {
     "index": 2
    }
   }
  },
  {
   "name": "steps_nocollide",
   "pbrMetallicRoughness": {
    "baseColorFactor": [
     0.55,
     0.55,
     0.6,
     1.0
    ]
   }
  },
  {
   "name": "sky",
   "pbrMetallicRoughness": {
    "baseColorFactor": [
     1.0,
     1.0,
     1.0,
     1.0
    ]
   }
  },
  {
   "name": "marker",
   "pbrMetallicRoughness": {
    "baseColorFactor": [
     0.9,
     0.3,
     0.6,
     1.0
    ]
   }
  }
 ],
 "textures": [
  {
   "source": 0,
   "sampler": 0
  },
  {
   "source": 1,
   "sampler": 0
  },
  {
   "source": 2,
   "sampler": 0
  }
 ],
 "images": [
  {
   "bufferView": 61,
   "mimeType": "image/png"
  },
  {
   "bufferView": 62,
   "mimeType": "image/png"
  },
  {
   "bufferView": 63,
   "mimeType": "image/png"
  }
 ],
 "samplers": [
  {
   "magFilter": 9729,
   "minFilter": 9987,
   "wrapS": 10497,
   "wrapT": 10497
  }
 ],
 "buffers": [
  {
   "uri": "data:application/octet-stream;base64,",
   "byteLength": 24218
  }
 ],
 "bufferViews": [
  {
   "buffer": 0,
   "byteOffset": 0,
   "byteLength": 1200,
   "target": 34962
  },
  {
   "buffer": 0,
   "byteOffset": 1200,
   "byteLength": 1200,
   "target": 34962
  },
  {
   "buffer": 0,
   "byteOffset": 2400,
   "byteLength": 800,
   "target": 34962
  },
  {
   "buffer": 0,
   "byteOffset": 3200,
   "byteLength": 300,
   "target": 34963
  },
  {
   "buffer": 0,
   "byteOffset": 3500,
   "byteLength": 288,
   "target": 34962
  },
  {
   "buffer": 0,
   "byteOffset": 3788,
   "byteLength": 288,
   "target": 34962
  },
  {
   "buffer": 0,
   "byteOffset": 4076,
   "byteLength": 192,
   "target": 34962
  },
  {
   "buffer": 0,
   "byteOffset": 4268,
   "byteLength": 72,
   "target": 34963
  },
  {
   "buffer": 0,
   "byteOffset": 4340,
   "byteLength": 720,
   "target": 34962
  },
  {
   "buffer": 0,
   "byteOffset": 5060,
   "byteLength": 720,
   "target": 34962
  },
  {
   "buffer": 0,
   "byteOffset": 5780,
   "byteLength": 480,
   "target": 34962
  },
  {
   "buffer": 0,
   "byteOffset": 6260,
   "byteLength": 180,
   "target": 34963
  },
  {
   "buffer": 0,
   "byteOffset": 6440,
   "byteLength": 240,
   "target": 34962
  },
  {
   "buffer": 0,
   "byteOffset": 6680,
   "byteLength": 240,
   "target": 34962
  },
  {
   "buffer": 0,
   "byteOffset": 6920,
   "byteLength": 160,
   "target": 34962
  },
  {
   "buffer": 0,
   "byteOffset": 7080,
   "byteLength": 60,
   "target": 34963
  },
  {
   "buffer": 0,
   "byteOffset": 7140,
   "byteLength": 1440,
   "target": 34962
  },
  {
   "buffer": 0,
   "byteOffset": 8580,
   "byteLength": 1440,
   "target": 34962
  },
  {
   "buffer": 0,
   "byteOffset": 10020,
   "byteLength": 960,
   "target": 34962
  },
  {
   "buffer": 0,
   "byteOffset": 10980,
   "byteLength": 360,
   "target": 34963
  },
  {
   "buffer": 0,
   "byteOffset": 11340,
   "byteLength": 2640,
   "target": 34962
  },
  {
   "buffer": 0,
   "byteOffset": 13980,
   "byteLength": 2640,
   "target": 34962
  },
  {
   "buffer": 0,
   "byteOffset": 16620,
   "byteLength": 1760,
   "target": 34962
  },
  {
   "buffer": 0,
   "byteOffset": 18380,
   "byteLength": 660,
   "target": 34963
  },
  {
   "buffer": 0,
   "byteOffset": 19040,
   "byteLength": 624,
   "target": 34962
  },
  {
   "buffer": 0,
   "byteOffset": 19664,
   "byteLength": 624,
   "target": 34962
  },
  {
   "buffer": 0,
   "byteOffset": 20288,
   "byteLength": 416,
   "target": 34962
  },
  {
   "buffer": 0,
   "byteOffset": 20704,
   "byteLength": 156,
   "target": 34963
  },
  {
   "buffer": 0,
   "byteOffset": 20860,
   "byteLength": 48,
   "target": 34962
  },
  {
   "buffer": 0,
   "byteOffset": 20908,
   "byteLength": 48,
   "target": 34962
  },
  {
   "buffer": 0,
   "byteOffset": 20956,
   "byteLength": 32,
   "target": 34962
  },
  {
   "buffer": 0,
   "byteOffset": 20988,
   "byteLength": 12,
   "target": 34963
  },
  {
   "buffer": 0,
   "byteOffset": 21000,
   "byteLength": 240,
   "target": 34962
  },
  {
   "buffer": 0,
   "byteOffset": 21240,
   "byteLength": 240,
   "target": 34962
  },
  {
   "buffer": 0,
   "byteOffset": 21480,
   "byteLength": 160,
   "target": 34962
  },
  {
   "buffer": 0,
   "byteOffset": 21640,
   "byteLength": 320,
   "target": 34962
  },
  {
   "buffer": 0,
   "byteOffset": 21960,
   "byteLength": 60,
   "target": 34963
  },
  {
   "buffer": 0,
   "byteOffset": 22020,
   "byteLength": 96,
   "target": 34962
  },
  {
   "buffer": 0,
   "byteOffset": 22116,
   "byteLength": 96,
   "target": 34962
  },
  {
   "buffer": 0,
   "byteOffset": 22212,
   "byteLength": 64,
   "target": 34962
  },
  {
   "buffer": 0,
   "byteOffset": 22276,
   "byteLength": 24,
   "target": 34963
  },
  {
   "buffer": 0,
   "byteOffset": 22300,
   "byteLength": 48,
   "target": 34962
  },
  {
   "buffer": 0,
   "byteOffset": 22348,
   "byteLength": 48,
   "target": 34962
  },
  {
   "buffer": 0,
   "byteOffset": 22396,
   "byteLength": 32,
   "target": 34962
  },
  {
   "buffer": 0,
   "byteOffset": 22428,
   "byteLength": 12,
   "target": 34963
  },
  {
   "buffer": 0,
   "byteOffset": 22440,
   "byteLength": 48,
   "target": 34962
  },
  {
   "buffer": 0,
   "byteOffset": 22488,
   "byteLength": 48,
   "target": 34962
  },
  {
   "buffer": 0,
   "byteOffset": 22536,
   "byteLength": 32,
   "target": 34962
  },
  {
   "buffer": 0,
   "byteOffset": 22568,
   "byteLength": 12,
   "target": 34963
  },
  {
   "buffer": 0,
   "byteOffset": 22580,
   "byteLength": 48,
   "target": 34962
  },
  {
   "buffer": 0,
   "byteOffset": 22628,
   "byteLength": 48,
   "target": 34962
  },
  {
   "buffer": 0,
   "byteOffset": 22676,
   "byteLength": 32,
   "target": 34962
  },
  {
   "buffer": 0,
   "byteOffset": 22708,
   "byteLength": 12,
   "target": 34963
  },
  {
   "buffer": 0,
   "byteOffset": 22720,
   "byteLength": 48,
   "target": 34962
  },
  {
   "buffer": 0,
   "byteOffset": 22768,
   "byteLength": 48,
   "target": 34962
  },
  {
   "buffer": 0,
   "byteOffset": 22816,
   "byteLength": 32,
   "target": 34962
  },
  {
   "buffer": 0,
   "byteOffset": 22848,
   "byteLength": 12,
   "target": 34963
  },
  {
   "buffer": 0,
   "byteOffset": 22860,
   "byteLength": 240,
   "target": 34962
  },
  {
   "buffer": 0,
   "byteOffset": 23100,
   "byteLength": 240,
   "target": 34962
  },
  {
   "buffer": 0,
   "byteOffset": 23340,
   "byteLength": 160,
   "target": 34962
  },
  {
   "buffer": 0,
   "byteOffset": 23500,
   "byteLength": 60,
   "target": 34963
  },
  {
   "buffer": 0,
   "byteOffset": 23560,
   "byteLength": 161
  },
  {
   "buffer": 0,
   "byteOffset": 23724,
   "byteLength": 167
  },
  {
   "buffer": 0,
   "byteOffset": 23892,
   "byteLength": 326
  }
 ],
 "accessors": [
  {
   "bufferView": 0,
   "componentType": 5126,
   "count": 100,
   "type": "VEC3",
   "min": [
    -10,
    0.0,
    -10
   ],
   "max": [
    10.0,
    0.0,
    10.0
   ]
  },
  {
   "bufferView": 1,
   "componentType": 5126,
   "count": 100,
   "type": "VEC3"
  },
  {
   "bufferView": 2,
   "componentType": 5126,
   "count": 100,
   "type": "VEC2"
  },
  {
   "bufferView": 3,
   "componentType": 5123,
   "count": 150,
   "type": "SCALAR"
  },
  {
   "bufferView": 4,
   "componentType": 5126,
   "count": 24,
   "type": "VEC3",
   "min": [
    -10,
    0,
    -10
   ],
   "max": [
    10,
    5,
    10
   ]
  },
  {
   "bufferView": 5,
   "componentType": 5126,
   "count": 24,
   "type": "VEC3"
  },
  {
   "bufferView": 6,
   "componentType": 5126,
   "count": 24,
   "type": "VEC2"
  },
  {
   "bufferView": 7,
   "componentType": 5123,
   "count": 36,
   "type": "SCALAR"
  },
  {
   "bufferView": 8,
   "componentType": 5126,
   "count": 60,
   "type": "VEC3",
   "min": [
    -7,
    0,
    -3
   ],
   "max": [
    6,
    3,
    10
   ]
  },
  {
   "bufferView": 9,
   "componentType": 5126,
   "count": 60,
   "type": "VEC3"
  },
  {
   "bufferView": 10,
   "componentType": 5126,
   "count": 60,
   "type": "VEC2"
  },
  {
   "bufferView": 11,
   "componentType": 5123,
   "count": 90,
   "type": "SCALAR"
  },
  {
   "bufferView": 12,
   "componentType": 5126,
   "count": 20,
   "type": "VEC3",
   "min": [
    -8,
    0,
    -8
   ],
   "max": [
    -6.5,
    1.3,
    -6.5
   ]
  },
  {
   "bufferView": 13,
   "componentType": 5126,
   "count": 20,
   "type": "VEC3"
  },
  {
   "bufferView": 14,
   "componentType": 5126,
   "count": 20,
   "type": "VEC2"
  },
  {
   "bufferView": 15,
   "componentType": 5123,
   "count": 30,
   "type": "SCALAR"
  },
  {
   "bufferView": 16,
   "componentType": 5126,
   "count": 120,
   "type": "VEC3",
   "min": [
    4,
    0,
    0
   ],
   "max": [
    6,
    3.0,
    6
   ]
  },
  {
   "bufferView": 17,
   "componentType": 5126,
   "count": 120,
   "type": "VEC3"
  },
  {
   "bufferView": 18,
   "componentType": 5126,
   "count": 120,
   "type": "VEC2"
  },
  {
   "bufferView": 19,
   "componentType": 5123,
   "count": 180,
   "type": "SCALAR"
  },
  {
   "bufferView": 20,
   "componentType": 5126,
   "count": 220,
   "type": "VEC3",
   "min": [
    -0.27,
    0,
    5.9
   ],
   "max": [
    0.27,
    3,
    5.94
   ]
  },
  {
   "bufferView": 21,
   "componentType": 5126,
   "count": 220,
   "type": "VEC3"
  },
  {
   "bufferView": 22,
   "componentType": 5126,
   "count": 220,
   "type": "VEC2"
  },
  {
   "bufferView": 23,
   "componentType": 5123,
   "count": 330,
   "type": "SCALAR"
  },
  {
   "bufferView": 24,
   "componentType": 5126,
   "count": 52,
   "type": "VEC3",
   "min": [
    10,
    0.0,
    -4
   ],
   "max": [
    20,
    4,
    4.0
   ]
  },
  {
   "bufferView": 25,
   "componentType": 5126,
   "count": 52,
   "type": "VEC3"
  },
  {
   "bufferView": 26,
   "componentType": 5126,
   "count": 52,
   "type": "VEC2"
  },
  {
   "bufferView": 27,
   "componentType": 5123,
   "count": 78,
   "type": "SCALAR"
  },
  {
   "bufferView": 28,
   "componentType": 5126,
   "count": 4,
   "type": "VEC3",
   "min": [
    10,
    0,
    -1.5
   ],
   "max": [
    10,
    3,
    1.5
   ]
  },
  {
   "bufferView": 29,
   "componentType": 5126,
   "count": 4,
   "type": "VEC3"
  },
  {
   "bufferView": 30,
   "componentType": 5126,
   "count": 4,
   "type": "VEC2"
  },
  {
   "bufferView": 31,
   "componentType": 5123,
   "count": 6,
   "type": "SCALAR"
  },
  {
   "bufferView": 32,
   "componentType": 5126,
   "count": 20,
   "type": "VEC3",
   "min": [
    -70.0,
    -20,
    -70.0
   ],
   "max": [
    70.0,
    60,
    70.0
   ]
  },
  {
   "bufferView": 33,
   "componentType": 5126,
   "count": 20,
   "type": "VEC3"
  },
  {
   "bufferView": 34,
   "componentType": 5126,
   "count": 20,
   "type": "VEC2"
  },
  {
   "bufferView": 35,
   "componentType": 5126,
   "count": 20,
   "type": "VEC4"
  },
  {
   "bufferView": 36,
   "componentType": 5123,
   "count": 30,
   "type": "SCALAR"
  },
  {
   "bufferView": 37,
   "componentType": 5126,
   "count": 8,
   "type": "VEC3",
   "min": [
    4,
    0,
    -1
   ],
   "max": [
    6,
    3,
    6
   ]
  },
  {
   "bufferView": 38,
   "componentType": 5126,
   "count": 8,
   "type": "VEC3"
  },
  {
   "bufferView": 39,
   "componentType": 5126,
   "count": 8,
   "type": "VEC2"
  },
  {
   "bufferView": 40,
   "componentType": 5123,
   "count": 12,
   "type": "SCALAR"
  },
  {
   "bufferView": 41,
   "componentType": 5126,
   "count": 4,
   "type": "VEC3",
   "min": [
    -7,
    1.1,
    2
   ],
   "max": [
    -3,
    1.1,
    2.4
   ]
  },
  {
   "bufferView": 42,
   "componentType": 5126,
   "count": 4,
   "type": "VEC3"
  },
  {
   "bufferView": 43,
   "componentType": 5126,
   "count": 4,
   "type": "VEC2"
  },
  {
   "bufferView": 44,
   "componentType": 5123,
   "count": 6,
   "type": "SCALAR"
  },
  {
   "bufferView": 45,
   "componentType": 5126,
   "count": 4,
   "type": "VEC3",
   "min": [
    -7,
    1.1,
    -3
   ],
   "max": [
    -3,
    1.1,
    -2.6
   ]
  },
  {
   "bufferView": 46,
   "componentType": 5126,
   "count": 4,
   "type": "VEC3"
  },
  {
   "bufferView": 47,
   "componentType": 5126,
   "count": 4,
   "type": "VEC2"
  },
  {
   "bufferView": 48,
   "componentType": 5123,
   "count": 6,
   "type": "SCALAR"
  },
  {
   "bufferView": 49,
   "componentType": 5126,
   "count": 4,
   "type": "VEC3",
   "min": [
    -8,
    1.3,
    -8
   ],
   "max": [
    -6.5,
    1.3,
    -6.5
   ]
  },
  {
   "bufferView": 50,
   "componentType": 5126,
   "count": 4,
   "type": "VEC3"
  },
  {
   "bufferView": 51,
   "componentType": 5126,
   "count": 4,
   "type": "VEC2"
  },
  {
   "bufferView": 52,
   "componentType": 5123,
   "count": 6,
   "type": "SCALAR"
  },
  {
   "bufferView": 53,
   "componentType": 5126,
   "count": 4,
   "type": "VEC3",
   "min": [
    -0.25,
    0,
    6
   ],
   "max": [
    0.25,
    3,
    6
   ]
  },
  {
   "bufferView": 54,
   "componentType": 5126,
   "count": 4,
   "type": "VEC3"
  },
  {
   "bufferView": 55,
   "componentType": 5126,
   "count": 4,
   "type": "VEC2"
  },
  {
   "bufferView": 56,
   "componentType": 5123,
   "count": 6,
   "type": "SCALAR"
  },
  {
   "bufferView": 57,
   "componentType": 5126,
   "count": 20,
   "type": "VEC3",
   "min": [
    -0.25,
    0,
    -0.25
   ],
   "max": [
    0.25,
    1.7,
    0.25
   ]
  },
  {
   "bufferView": 58,
   "componentType": 5126,
   "count": 20,
   "type": "VEC3"
  },
  {
   "bufferView": 59,
   "componentType": 5126,
   "count": 20,
   "type": "VEC2"
  },
  {
   "bufferView": 60,
   "componentType": 5123,
   "count": 30,
   "type": "SCALAR"
  }
 ]
}